/* XPM */
static char * checkoff_xpm[] = {
"16 16 5 1",
" 	c #FFFFFFFFFFFF",
".	c #767779",
"+	c #B0B1B2",
"@	c #030310",
"#	c #F6F6F5",
"                ",
"                ",
"                ",
"   .........+   ",
"   .@@@@@@@@#   ",
"   .@######@#   ",
"   .@######@#   ",
"   .@######@#   ",
"   .@######@#   ",
"   .@######@#   ",
"   .@######@#   ",
"   .@@@@@@@@#   ",
"   +#########   ",
"                ",
"                ",
"                "};
