/* XPM */
static char * conflicts_xpm[] = {
"16 16 10 1",
" 	c #FFFFFFFFFFFF",
".	c #F4DADA",
"+	c #D97979",
"@	c #C73A3A",
"#	c #C12424",
"$	c #E9B4B4",
"%	c #CB4848",
"&	c #E6A9A9",
"*	c #F8E8E8",
"=	c #FFFFFF",
"                ",
"                ",
"    .+@#@+.     ",
"   $#######$    ",
"  .#%&*=*###.   ",
"  +#&===####+   ",
"  @#*==###*#@   ",
"  ##==###==##   ",
"  @#*###==*#@   ",
"  +####===&#+   ",
"  .###*=*&%#.   ",
"   $#######$    ",
"    .+@#@+.     ",
"                ",
"                ",
"                "};
