/* XPM */
static char * depends_xpm[] = {
"16 16 18 1",
" 	c #FFFFFFFFFFFF",
".	c #585858",
"+	c #B2B2B2",
"@	c #4A4A4A",
"#	c #000000",
"$	c #E0E0E0",
"%	c #DEDEDE",
"&	c #F8F8F8",
"*	c #FFFFFF",
"=	c #B7B7B7",
"-	c #F7F7F7",
";	c #AAAAAA",
">	c #C0C0C0",
",	c #434343",
"'	c #373737",
")	c #3E3E3E",
"!	c #EBEBEB",
"~	c #959595",
"                ",
" .+             ",
" +@##.          ",
"  ##$+#         ",
"  #%&*+.        ",
"  .=*-;#        ",
"   #+>,#        ",
"    .##'##.     ",
"       #)++#    ",
"       #+!*+.   ",
"       .+***#   ",
"        #+*.#   ",
"         .##@~  ",
"            +@  ",
"                ",
"                "};
