/* XPM */
static char * minus_xpm[] = {
"16 16 72 1",
" 	c #FFFFFFFFFFFF s Background",
".	c #D1D1D1",
"+	c #5D5D5D",
"@	c #181818",
"#	c #000000",
"$	c #171717",
"%	c #595959",
"&	c #CDCDCD",
"*	c #A3A3A3",
"=	c #272727",
"-	c #919191",
";	c #D4D4D4",
">	c #EBEBEB",
",	c #CACACA",
"'	c #818181",
")	c #202020",
"!	c #989898",
"~	c #F3F3F3",
"{	c #F4F4F4",
"]	c #E9E9E9",
"^	c #DADADA",
"/	c #C5C5C5",
"(	c #1C1C1C",
"_	c #C9C9C9",
":	c #5E5E5E",
"<	c #949494",
"[	c #F6F6F6",
"}	c #FBFBFB",
"|	c #EDEDED",
"1	c #696969",
"2	c #4C4C4C",
"3	c #191919",
"4	c #E3E3E3",
"5	c #343434",
"6	c #1D1D1D",
"7	c #444444",
"8	c #BFBFBF",
"9	c #959595",
"0	c #121212",
"a	c #EEEEEE",
"b	c #161616",
"c	c #101010",
"d	c #B8B8B8",
"e	c #9F9F9F",
"f	c #F1F1F1",
"g	c #E2E2E2",
"h	c #C3C3C3",
"i	c #AAAAAA",
"j	c #858585",
"k	c #5B5B5B",
"l	c #868686",
"m	c #DDDDDD",
"n	c #D3D3D3",
"o	c #C6C6C6",
"p	c #B3B3B3",
"q	c #555555",
"r	c #464646",
"s	c #CECECE",
"t	c #222222",
"u	c #D2D2D2",
"v	c #CFCFCF",
"w	c #CBCBCB",
"x	c #B4B4B4",
"y	c #151515",
"z	c #9B9B9B",
"A	c #747474",
"B	c #A6A6A6",
"C	c #B1B1B1",
"D	c #8C8C8C",
"E	c #525252",
"F	c #131313",
"G	c #4A4A4A",
"                ",
"                ",
"    .+@#$%&     ",
"   *=-;>,')!    ",
"  .=~{]]]^/(_   ",
"  :<[}|||^/12   ",
"  34%%5657890   ",
"  #a%5bc67de#   ",
"  @.|fg^^hij0   ",
"  klg4mnopeqr   ",
"  stuvwhx*<yh   ",
"   z)ABC<kyD    ",
"    wEF#0Gh     ",
"                ",
"                ",
"                "};
