/* XPM */
static char * package_xpm[] = {
"16 16 35 1",
" 	c #FFFFFFFFFFFF",
".	c #000000",
"+	c #D8CCA8",
"@	c #696351",
"#	c #3E3229",
"$	c #261F19",
"%	c #B3A98B",
"&	c #555042",
"*	c #474337",
"=	c #716B58",
"-	c #5D5243",
";	c #9C9479",
">	c #958D74",
",	c #F1ECE0",
"'	c #E3DBC2",
")	c #6D6452",
"!	c #443F33",
"~	c #ABA185",
"{	c #7A6B58",
"]	c #CCA070",
"^	c #F5EEE6",
"/	c #54493E",
"(	c #7D7661",
"_	c #5E5949",
":	c #382D25",
"<	c #685444",
"[	c #504031",
"}	c #888077",
"|	c #F5F1E9",
"1	c #5E4C3D",
"2	c #281F19",
"3	c #E5D0B9",
"4	c #4E3F33",
"5	c #261E18",
"6	c #5A493B",
"                ",
"                ",
"                ",
"       ...      ",
"     ..++@#$    ",
"   ..%&*=-;>..  ",
"  .,'+%)!*~%{.  ",
"  .]^,/(+(_:<.  ",
"  .]][}|'+12<.  ",
"  .]][]]31<2<.  ",
"  .]][]]]1<24.  ",
"  .]][]]]1<5.   ",
"   ..[]]]1<.    ",
"     ..]]6.     ",
"       ...      ",
"                "};
