/* XPM */
static char * plus_xpm[] = {
"16 16 71 1",
" 	c #FFFFFFFFFFFF s Background",
".	c #D1D1D1",
"+	c #5D5D5D",
"@	c #181818",
"#	c #000000",
"$	c #171717",
"%	c #595959",
"&	c #CDCDCD",
"*	c #A3A3A3",
"=	c #272727",
"-	c #919191",
";	c #D4D4D4",
">	c #EBEBEB",
",	c #CACACA",
"'	c #818181",
")	c #202020",
"!	c #989898",
"~	c #F3F3F3",
"{	c #F4F4F4",
"]	c #757575",
"^	c #E9E9E9",
"/	c #DADADA",
"(	c #C5C5C5",
"_	c #1C1C1C",
":	c #C9C9C9",
"<	c #5E5E5E",
"[	c #949494",
"}	c #F6F6F6",
"|	c #FBFBFB",
"1	c #343434",
"2	c #EDEDED",
"3	c #696969",
"4	c #4C4C4C",
"5	c #191919",
"6	c #E3E3E3",
"7	c #1D1D1D",
"8	c #444444",
"9	c #BFBFBF",
"0	c #959595",
"a	c #121212",
"b	c #EEEEEE",
"c	c #161616",
"d	c #101010",
"e	c #B8B8B8",
"f	c #9F9F9F",
"g	c #F1F1F1",
"h	c #C3C3C3",
"i	c #AAAAAA",
"j	c #858585",
"k	c #5B5B5B",
"l	c #868686",
"m	c #E2E2E2",
"n	c #C6C6C6",
"o	c #B3B3B3",
"p	c #555555",
"q	c #464646",
"r	c #CECECE",
"s	c #222222",
"t	c #D2D2D2",
"u	c #CFCFCF",
"v	c #CBCBCB",
"w	c #B4B4B4",
"x	c #151515",
"y	c #9B9B9B",
"z	c #747474",
"A	c #A6A6A6",
"B	c #B1B1B1",
"C	c #8C8C8C",
"D	c #525252",
"E	c #131313",
"F	c #4A4A4A",
"                ",
"                ",
"    .+@#$%&     ",
"   *=-;>,')!    ",
"  .=~{]%^/(_:   ",
"  <[}|%12/(34   ",
"  56%%171890a   ",
"  #b%1cd78ef#   ",
"  @.2g1=/hija   ",
"  klm688nofpq   ",
"  rstuvhw*[xh   ",
"   y)zAB[kxC    ",
"    vDE#aFh     ",
"                ",
"                ",
"                "};
