/* XPM */
static char * radiooff_xpm[] = {
"16 16 43 1",
" 	c #FFFFFFFFFFFF",
".	c #D4D4D4",
"+	c #636363",
"@	c #1A1A1A",
"#	c #000000",
"$	c #A8A8A8",
"%	c #292929",
"&	c #626262",
"*	c #767676",
"=	c #8A8A8A",
"-	c #A5A5A5",
";	c #6F6F6F",
">	c #2A2A2A",
",	c #4F4F4F",
"'	c #A0A0A0",
")	c #E6E6E6",
"!	c #EFEFEF",
"~	c #F5F5F5",
"{	c #FFFFFF",
"]	c #BCBCBC",
"^	c #404040",
"/	c #606060",
"(	c #979797",
"_	c #EEEEEE",
":	c #D8D8D8",
"<	c #545454",
"[	c #C6C6C6",
"}	c #FDFDFD",
"|	c #6B6B6B",
"1	c #D1D1D1",
"2	c #585858",
"3	c #D6D6D6",
"4	c #616161",
"5	c #E9E9E9",
"6	c #353535",
"7	c #ACACAC",
"8	c #F3F3F3",
"9	c #464646",
"0	c #303030",
"a	c #CDCDCD",
"b	c #FEFEFE",
"c	c #DEDEDE",
"d	c #484848",
"                ",
"                ",
"    .+@#@+.     ",
"   $%&*=-;%$    ",
"  .>,')!~{]^.   ",
"  +/(_{{{{{:+   ",
"  @<[{{{{{{}@   ",
"  #|1{{{{{{{#   ",
"  @23{{{{{{}@   ",
"  +4:{{{{{{5+   ",
"  .678{{{{{9.   ",
"   $0ab{}cd$    ",
"    .+@#@+.     ",
"                ",
"                ",
"                "};
