/* XPM */
static char * radioon_xpm[] = {
"16 16 45 1",
" 	c #FFFFFFFFFFFF",
".	c #D4D4D4",
"+	c #636363",
"@	c #1A1A1A",
"#	c #000000",
"$	c #A8A8A8",
"%	c #292929",
"&	c #626262",
"*	c #767676",
"=	c #8A8A8A",
"-	c #A5A5A5",
";	c #6F6F6F",
">	c #2A2A2A",
",	c #4F4F4F",
"'	c #A0A0A0",
")	c #E6E6E6",
"!	c #EFEFEF",
"~	c #F5F5F5",
"{	c #FFFFFF",
"]	c #BCBCBC",
"^	c #404040",
"/	c #606060",
"(	c #979797",
"_	c #EEEEEE",
":	c #D8D8D8",
"<	c #545454",
"[	c #C6C6C6",
"}	c #3D3D3D",
"|	c #FDFDFD",
"1	c #6B6B6B",
"2	c #D1D1D1",
"3	c #828282",
"4	c #585858",
"5	c #D6D6D6",
"6	c #616161",
"7	c #E9E9E9",
"8	c #353535",
"9	c #ACACAC",
"0	c #CACACA",
"a	c #464646",
"b	c #303030",
"c	c #CDCDCD",
"d	c #FEFEFE",
"e	c #DEDEDE",
"f	c #484848",
"                ",
"                ",
"    .+@#@+.     ",
"   $%&*=-;%$    ",
"  .>,')!~{]^.   ",
"  +/(_{{{{{:+   ",
"  @<[.<#}.{|@   ",
"  #12<{3#}{{#   ",
"  @45#3###{|@   ",
"  +6:}###}{7+   ",
"  .890}#}.{a.   ",
"   $bcd{|ef$    ",
"    .+@#@+.     ",
"                ",
"                ",
"                "};
