/* XPM */
static char * recommends_xpm[] = {
"16 16 21 1",
" 	c #FFFFFFFFFFFF",
".	c #919191",
"+	c #000000",
"@	c #9F9F9F",
"#	c #DDDDDD",
"$	c #1E1E1E",
"%	c #D1D1D1",
"&	c #454545",
"*	c #C0C0C0",
"=	c #5D5D5D",
"-	c #CFCFCF",
";	c #E7E7E7",
">	c #8B8B8B",
",	c #A2A2A2",
"'	c #9A9A9A",
")	c #797979",
"!	c #535353",
"~	c #5A5A5A",
"{	c #444444",
"]	c #E8E8E8",
"^	c #CDCDCD",
"                ",
"                ",
"      .+@       ",
"      +#$%      ",
"      +#$%      ",
"      +#&       ",
"     +##+++*    ",
"  +++##=-;.+    ",
"  #####*+.+.    ",
"  #####=-;.+    ",
"  ***##.+>+,    ",
"  +++.')!;~{    ",
"    ].+++++^    ",
"                ",
"                ",
"                "};
