/* XPM */
static char * section_xpm[] = {
"16 16 5 1",
" 	c #FFFFFFFFFFFF s Background",
".	c #B6DA82070000",
"X	c #FFFFFFFF0000",
"o	c #FFFFD34C1861",
"O	c #6185618571C6",
"                ",
"                ",
"                ",
"         .....  ",
"   .......XXXoO ",
"  .oooooo.XXXoO ",
" .........XXXoO ",
" .XXXXXXXXXXXoO ",
" .XXXXXXXXXXXoO ",
" .XXXXXXXXXXXoO ",
" .XXXXXXXXXXXoO ",
" .XXXXXXXXXXXoO ",
" .           oO ",
" .ooooooooooooO ",
"  OOOOOOOOOOOOO ",
"                "};
