/* XPM */
static char * suggests_xpm[] = {
"16 16 4 1",
" 	c #FFFFFFFFFFFF",
".	c #8E388A288E38",
"X	c #FFFFD75C1861",
"o	c #000000000000",
"                ",
"       .        ",
"      .X.       ",
"     .XXX.      ",
"     .XXX.      ",
"    .XXXXX.     ",
"    .XXoXX.     ",
"   .XXo.oXX.    ",
"  .XXXo.oXXX.   ",
"  .XXXo.oXXX.   ",
" .XXXXXoXXXXX.  ",
" .XXXXXXXXXXX.  ",
".XXXXXXoXXXXXX. ",
".XXXXXXXXXXXXX. ",
"ooooooooooooooo ",
"                "};
