/* XPM */
static char * upgrade_xpm[] = {
"16 16 3 1",
" 	c #FFFFFFFFFFFF s Background",
".	c #000000",
"+	c #2F2F2F",
"                ",
"                ",
"                ",
"                ",
"       .        ",
"      ...       ",
"     .....      ",
"    .+.....     ",
"      ...       ",
"      ...       ",
"      ...       ",
"      ...       ",
"                ",
"                ",
"                ",
"                "};
